<svg xmlns="http://www.w3.org/2000/svg" height="800" width="1200" viewBox="-45.48 -63.75525 394.16 382.5315"><g style="line-height:125%;-inkscape-font-specification:Ubuntu"><path style="-inkscape-font-specification:'Anonymous Pro Bold'" d="M93.882 245.001q0 2.375-.817 4.23-.816 1.856-2.3 3.143-1.46 1.286-3.464 1.954-1.98.693-4.428.693-6.012 0-10.267-3.637l2.424-3.958q3.538 3.043 7.843 3.043 2.647 0 4.255-1.311 1.633-1.287 1.633-4.058v-2.474q-1.584 1.361-3.043 2.03-1.46.642-3.39.642-2.226 0-4.131-.94-1.905-.94-3.29-2.548-1.361-1.633-2.153-3.785-.767-2.152-.767-4.577 0-2.424.767-4.577.792-2.177 2.153-3.76 1.385-1.608 3.29-2.524 1.905-.94 4.131-.94 1.93 0 3.44.668 1.508.643 2.993 1.955v-2.078h5.12zm-5.121-16.674q-.916-1.014-2.375-1.534-1.435-.544-2.796-.544-2.894 0-4.7 2.028-1.782 2.03-1.782 5.171 0 1.559.47 2.895.495 1.31 1.336 2.276.866.964 2.054 1.533 1.212.545 2.622.545 1.36 0 2.796-.545 1.46-.569 2.375-1.583zm30.329 16.922h-5.12v-14.225q0-2.697-1.015-3.736-1.015-1.04-2.944-1.04-2.845 0-4.651 2.302-1.782 2.3-1.782 6.358v10.34h-5.12v-23.056h5.12v5.789q.767-2.994 2.845-4.651 2.079-1.683 5.122-1.683 3.537 0 5.541 2.301 2.004 2.3 2.004 7.076zm4.076-23.057h5.12v14.25q0 2.671 1.015 3.71 1.014 1.04 2.944 1.04 2.82 0 4.626-2.301 1.806-2.301 1.806-6.358v-10.341h5.121v23.057h-5.12v-5.764q-.768 2.968-2.846 4.65-2.078 1.683-5.12 1.683-3.539 0-5.542-2.3-2.004-2.326-2.004-7.076zm56.799 23.057h-5.12v-14.225q0-2.697-1.015-3.736-1.015-1.04-2.944-1.04-2.845 0-4.651 2.302-1.782 2.3-1.782 6.358v10.34h-5.12v-23.056h5.12v5.789q.767-2.994 2.845-4.651 2.079-1.683 5.122-1.683 3.537 0 5.541 2.301 2.004 2.3 2.004 7.076zm8.064-9.574q.371 2.375 2.251 3.958 1.905 1.559 5.097 1.559 2.498 0 4.329-.767 1.856-.792 3.191-2.078l2.623 3.611q-2.227 2.227-4.725 3.043-2.474.817-5.418.817-2.672 0-4.973-.89-2.3-.891-3.983-2.475-1.682-1.608-2.647-3.81-.94-2.201-.94-4.898 0-2.622.866-4.824.89-2.227 2.473-3.835 1.609-1.633 3.835-2.523 2.227-.916 4.923-.916 2.796 0 5.072.965 2.276.94 3.884 2.746 1.633 1.806 2.548 4.429.916 2.597.916 5.888zm13.533-4.503q-.396-2.227-2.301-3.562-1.905-1.361-4.33-1.361-2.424 0-4.354 1.36-1.93 1.336-2.325 3.563zm29.779 6.729q-.395 3.637-2.87 5.79-2.449 2.127-6.135 2.127-2.028 0-3.71-.668-1.683-.668-2.87-1.856-1.188-1.187-1.856-2.845-.643-1.682-.643-3.661v-9.97h-5.22v-4.626h5.22v-9.228h5.12v9.228h9.674v4.626h-9.673v9.97q0 2.226 1.088 3.315 1.089 1.089 2.87 1.089 2.177 0 3.241-1.262t1.262-3.043z" aria-label="gnu net" font-weight="700" font-size="50.667" font-family="Anonymous Pro" letter-spacing="0" word-spacing="0"/></g><g transform="translate(-8.325 -81.42)"><path d="M62.698 85.778l-39.5 48v0l-1 2" fill="none" stroke="#3498db" stroke-width="1.5" stroke-opacity=".976"/><path d="M12.698 104.778l10 29 21-10.5v0" fill="none" stroke="#3498db" stroke-width="2.5" stroke-opacity=".976"/><path d="M11.81 105.245l63.622 34.912 23.318-11.1-35.04 28.75 11.862-17.775-53.184-5.797 40.95 23.697 25.325.497 24.193 3.025v48.02l21.05-32.149-20.56-15.871 32.528 48.02-8.07 31.385-24.948-31.762 24.949 77.514 22.254-36.699 21.974 37.077-43.6-.372 41.328-28.874 22.06-21.172-19.91 50.171-3.716-29.606-8.579-31.768-9.694 24.715 54.376-52.199-24.967 8.947-18.392 19.153 18.276-55.077 25.208 27.362 20.666-41.353-46.002 14.128 22.943-37.074 23.053 23.077 31.881-26.48 40.079-25.587-15.264 39.208-24.693-13.74-55.056 4.031 79.627 9.581-56.574 12.734" fill="none" stroke="#3498db" stroke-width="2"/><path d="M98.869 129.314l37.046 48.02m-47.631-18.905l10.963-29.115 12.474 32.518" fill="none" stroke="#3498db" stroke-width="1.5"/><path d="M212.14 133.782l54.69-3.646-31.756 27.048" fill="none" stroke="#3498db" stroke-width="3"/><path d="M11.698 105.778l50.5-19.5-14.05 28.1.925-1.725-5.875 11.75-.25-.75" fill="none" stroke="#3498db" stroke-width="2" stroke-opacity=".976"/><ellipse cx="43.167" cy="123.167" rx="4.158" ry="4.159" fill="#419edb" stroke="#419edb" stroke-width=".397" stroke-linecap="round" stroke-linejoin="round" stroke-opacity=".976"/><path d="M22.51 134.607l54.056 6.05" fill="none" stroke="#3498db" stroke-width="1.587"/><ellipse cx="22.888" cy="133.851" rx="4.158" ry="4.159" fill="#419edb" stroke="#419edb" stroke-width=".397" stroke-linecap="round" stroke-linejoin="round" stroke-opacity=".976"/><ellipse cy="129.435" cx="98.866" rx="4.158" ry="4.159" fill="#419edb" stroke="#419edb" stroke-width=".397" stroke-linecap="round" stroke-linejoin="round" stroke-opacity=".976"/><path d="M214.164 198.887l-2.268-64.28" fill="#729fcf" fill-rule="evenodd" stroke="#3498db" stroke-width="1.5"/><ellipse cx="211.958" cy="134.289" rx="4.158" ry="4.159" fill="#419edb" stroke="#419edb" stroke-width=".397" stroke-linecap="round" stroke-linejoin="round" stroke-opacity=".976"/><ellipse cx="267.086" cy="130.05" rx="4.158" ry="4.159" fill="#419edb" stroke="#419edb" stroke-width=".397" stroke-linecap="round" stroke-linejoin="round" stroke-opacity=".976"/><path d="M189.573 206.528l-44 2.625 25.375 17.125v0" fill="none" stroke="#3498db" stroke-width="1.5"/><path d="M88.284 157.672l24.572 51.425" fill="none" stroke="#3498db" stroke-width="3"/><path d="M146.877 209.097l12.853 40.08m-21.925-8.697l.378 45.753m76.359-86.211l-12.097 36.677M88.284 158.05l46.984 22.028 10.853 28.262" fill="none" stroke="#3498db" stroke-width="1.5"/><path d="M201.69 236.321l-12.853-66.17v36.677zm-31.754-10.587l31.753 10.587m-88.833-74.489v48.777l24.57 30.25 23.816 9.452" fill="none" stroke="#3498db" stroke-width="1.587"/><path d="M137.049 286.989l44.984-.378" fill="none" stroke="#3498db" stroke-width="3"/><ellipse cy="792.298" cx="547.218" rx="4.158" ry="4.159" transform="translate(-387.415 -542.541)" fill="#419edb" stroke="#419edb" stroke-width=".397" stroke-linecap="round" stroke-linejoin="round" stroke-opacity=".976"/><ellipse cx="568.981" cy="829.24" rx="4.158" ry="4.159" transform="translate(-387.415 -542.541)" fill="#419edb" stroke="#419edb" stroke-width=".397" stroke-linecap="round" stroke-linejoin="round" stroke-opacity=".976"/><ellipse cy="829.24" cx="525.799" rx="4.158" ry="4.159" transform="translate(-387.415 -542.541)" fill="#419edb" stroke="#419edb" stroke-width=".397" stroke-linecap="round" stroke-linejoin="round" stroke-opacity=".976"/><ellipse cy="699.835" cx="450.75" rx="4.158" ry="4.159" transform="translate(-387.415 -542.541)" fill="#419edb" stroke="#419edb" stroke-width=".397" stroke-linecap="round" stroke-linejoin="round" stroke-opacity=".976"/><ellipse cx="476.077" cy="700.592" rx="4.158" ry="4.159" transform="translate(-387.415 -542.541)" fill="#419edb" stroke="#419edb" stroke-width=".397" stroke-linecap="round" stroke-linejoin="round" stroke-opacity=".976"/><ellipse cy="719.653" cx="521.491" rx="4.158" ry="4.159" transform="translate(-387.415 -542.541)" fill="#419edb" stroke="#419edb" stroke-width=".397" stroke-linecap="round" stroke-linejoin="round" stroke-opacity=".976"/><ellipse cx="462.472" cy="682.192" rx="4.158" ry="4.159" transform="translate(-387.415 -542.541)" fill="#419edb" stroke="#419edb" stroke-width=".397" stroke-linecap="round" stroke-linejoin="round" stroke-opacity=".976"/><ellipse cy="703.873" cx="500.636" rx="4.158" ry="4.159" transform="translate(-387.415 -542.541)" fill="#419edb" stroke="#419edb" stroke-width=".397" stroke-linecap="round" stroke-linejoin="round" stroke-opacity=".976"/><ellipse cx="500.648" cy="751.638" rx="4.158" ry="4.159" transform="translate(-387.415 -542.541)" fill="#419edb" stroke="#419edb" stroke-width=".397" stroke-linecap="round" stroke-linejoin="round" stroke-opacity=".976"/><ellipse cy="751.726" cx="533.334" rx="4.158" ry="4.159" transform="translate(-387.415 -542.541)" fill="#419edb" stroke="#419edb" stroke-width=".397" stroke-linecap="round" stroke-linejoin="round" stroke-opacity=".976"/><ellipse cx="525.219" cy="783.022" rx="4.158" ry="4.159" transform="translate(-387.415 -542.541)" fill="#419edb" stroke="#419edb" stroke-width=".397" stroke-linecap="round" stroke-linejoin="round" stroke-opacity=".976"/><ellipse cy="800.125" cx="566.207" rx="4.158" ry="4.159" transform="translate(-387.415 -542.541)" fill="#419edb" stroke="#419edb" stroke-width=".397" stroke-linecap="round" stroke-linejoin="round" stroke-opacity=".976"/><ellipse cx="601.579" cy="740.672" rx="4.158" ry="4.159" transform="translate(-387.415 -542.541)" fill="#419edb" stroke="#419edb" stroke-width=".397" stroke-linecap="round" stroke-linejoin="round" stroke-opacity=".976"/><ellipse cy="713.448" cx="576.63" rx="4.158" ry="4.159" transform="translate(-387.415 -542.541)" fill="#419edb" stroke="#419edb" stroke-width=".397" stroke-linecap="round" stroke-linejoin="round" stroke-opacity=".976"/><ellipse cx="577.008" cy="748.991" rx="4.158" ry="4.159" transform="translate(-387.415 -542.541)" fill="#419edb" stroke="#419edb" stroke-width=".397" stroke-linecap="round" stroke-linejoin="round" stroke-opacity=".976"/><ellipse cy="778.675" cx="588.854" rx="4.158" ry="4.159" transform="translate(-387.415 -542.541)" fill="#419edb" stroke="#419edb" stroke-width=".397" stroke-linecap="round" stroke-linejoin="round" stroke-opacity=".976"/><ellipse cy="699.458" cx="622.37" rx="4.158" ry="4.159" transform="translate(-387.415 -542.541)" fill="#419edb" stroke="#419edb" stroke-width=".397" stroke-linecap="round" stroke-linejoin="round" stroke-opacity=".976"/><path d="M307.198 104.778l-40.285-17.01-4.715-1.99 29 57.5v-.5h.5" fill="none" stroke="#3498db" stroke-width="2.5" stroke-opacity=".976"/><ellipse cy="686.223" cx="679.072" rx="4.158" ry="4.159" transform="translate(-387.415 -542.541)" fill="#419edb" stroke="#419edb" stroke-width=".397" stroke-linecap="round" stroke-linejoin="round" stroke-opacity=".976"/><ellipse cy="748.991" cx="577.008" rx="4.158" ry="4.159" transform="translate(-387.415 -542.541)" fill="#419edb" stroke="#419edb" stroke-width=".397" stroke-linecap="round" stroke-linejoin="round" stroke-opacity=".976"/><ellipse cx="577.07" cy="748.991" rx="4.158" ry="4.159" transform="translate(-387.415 -542.541)" fill="#419edb" stroke="#419edb" stroke-width=".397" stroke-linecap="round" stroke-linejoin="round" stroke-opacity=".976"/><ellipse cy="768.716" cx="557.827" rx="4.158" ry="4.159" transform="translate(-387.415 -542.541)" fill="#419edb" stroke="#419edb" stroke-width=".397" stroke-linecap="round" stroke-linejoin="round" stroke-opacity=".976"/><ellipse cy="647.343" cx="400.096" rx="4.158" ry="4.159" transform="translate(-387.415 -542.541)" fill="#419edb" stroke="#419edb" stroke-width=".397" stroke-linecap="round" stroke-linejoin="round" stroke-opacity=".976"/><ellipse cx="694.583" cy="647.305" rx="4.158" ry="4.159" transform="translate(-387.415 -542.541)" fill="#419edb" stroke="#419edb" stroke-width=".397" stroke-linecap="round" stroke-linejoin="round" stroke-opacity=".976"/><ellipse cy="628.319" cx="450.113" rx="4.158" ry="4.159" transform="translate(-387.415 -542.541)" fill="#419edb" stroke="#419edb" stroke-width=".397" stroke-linecap="round" stroke-linejoin="round" stroke-opacity=".976"/><ellipse cy="628.319" cx="649.613" rx="4.158" ry="4.159" transform="translate(-387.415 -542.541)" fill="#419edb" stroke="#419edb" stroke-width=".397" stroke-linecap="round" stroke-linejoin="round" stroke-opacity=".976"/></g><g transform="translate(-8.325 -34.142)" fill="#666" stroke="#666" stroke-width=".397" stroke-linecap="round" stroke-linejoin="round" stroke-opacity=".976"><ellipse cy="276.33" cx="159.801" rx="4.158" ry="4.159"/><ellipse cy="259.993" cx="159.801" rx="4.158" ry="4.159"/></g></svg>